<?xml version="1.0" standalone="no"?>
<!DOCTYPE svg PUBLIC "-//W3C//DTD SVG 20010904//EN"
 "http://www.w3.org/TR/2001/REC-SVG-20010904/DTD/svg10.dtd">
<svg version="1.0" xmlns="http://www.w3.org/2000/svg"
 width="256.000000pt" height="256.000000pt" viewBox="0 0 256.000000 256.000000"
 preserveAspectRatio="xMidYMid meet">

<g transform="translate(0.000000,256.000000) scale(0.100000,-0.100000)"
fill="#000000" stroke="none">
<path d="M1135 2389 c-368 -46 -706 -293 -865 -632 -293 -625 40 -1359 704
-1551 385 -112 810 -2 1096 284 435 436 435 1144 0 1580 -245 245 -589 362
-935 319z m205 -524 c59 -31 61 -42 58 -406 l-3 -331 -32 -29 c-59 -52 -113
-51 -170 6 l-33 33 0 326 c0 272 3 332 15 356 29 55 105 76 165 45z m-2 -945
c109 -49 100 -213 -14 -250 -99 -33 -199 54 -180 156 8 39 64 100 98 107 43 8
53 7 96 -13z"/>
</g>
</svg>
